<svg height="512" viewBox="0 0 512 512" width="512" xmlns="http://www.w3.org/2000/svg"><g id="flat"><path d="m128 240v-192a24 24 0 0 1 24-24h232v216z" fill="#55300b"/><g fill="#683b0d"><path d="m160 160h48v80h-48z"/><path d="m232 160h48v80h-48z"/><path d="m304 160h48v80h-48z"/><path d="m160 56h48v80h-48z"/><path d="m232 56h48v80h-48z"/><path d="m304 56h48v80h-48z"/></g><path d="m384 488h-232a24 24 0 0 1 -24-24v-264h220a36 36 0 0 1 36 36z" fill="#eaeae8"/><path d="m352 200h-4a36 36 0 0 0 -36 36 36 36 0 0 0 36 36h-216a36 36 0 0 1 -36-36 36 36 0 0 1 36-36z" fill="#cbcbcb"/><path d="m384 24h20a12 12 0 0 1 12 12v196a0 0 0 0 1 0 0h-32a0 0 0 0 1 0 0v-208a0 0 0 0 1 0 0z" fill="#422509"/><path d="m384 232h32a0 0 0 0 1 0 0v244a12 12 0 0 1 -12 12h-20a0 0 0 0 1 0 0v-256a0 0 0 0 1 0 0z" fill="#d8595a"/><path d="m299.853 333.747a30.545 30.545 0 0 1 21.6-8.947 30.547 30.547 0 0 1 30.547 30.547 30.545 30.545 0 0 1 -8.947 21.6l-63.053 63.053-24-24z" fill="#d8595a"/><path d="m303.053 372.147-63.053 63.053-63.053-63.053a30.545 30.545 0 0 1 -8.947-21.6 30.547 30.547 0 0 1 30.547-30.547 30.545 30.545 0 0 1 21.6 8.947l19.853 19.853 19.853-19.853a30.545 30.545 0 0 1 21.6-8.947 30.547 30.547 0 0 1 30.547 30.547 30.545 30.545 0 0 1 -8.947 21.6z" fill="#f16465"/></g></svg>